{"glyphs":{"0":{"ha":893,"x_min":56,"x_max":836,"o":"m 446 996 q 631 953 556 996 q 751 840 706 910 q 817 679 797 769 q 836 494 836 589 q 817 310 836 400 q 753 149 799 219 q 633 36 708 79 q 446 -7 558 -7 q 260 36 335 -7 q 140 149 185 79 q 75 310 94 219 q 56 494 56 400 q 75 679 56 589 q 140 840 94 769 q 261 953 186 910 q 446 996 336 996 m 446 15 q 640 139 579 15 q 700 494 700 263 q 640 850 700 726 q 446 974 579 974 q 253 848 314 974 q 193 494 193 722 q 253 141 193 267 q 446 15 314 15 z "},"1":{"ha":368,"x_min":83,"x_max":283,"o":"m 247 63 q 251 43 247 51 q 263 28 256 35 q 283 22 269 22 l 283 8 l 83 8 l 83 22 q 105 28 97 22 q 115 43 113 35 q 119 63 119 51 l 119 864 l 83 864 l 83 878 l 233 996 l 247 996 l 247 63 z "},"2":{"ha":761,"x_min":63,"x_max":692,"o":"m 638 126 q 657 131 649 126 q 670 141 664 133 q 676 161 676 149 l 692 161 l 692 8 l 63 8 l 63 24 q 84 182 63 115 q 140 299 106 249 q 219 387 175 350 q 310 454 264 424 q 401 513 357 485 q 480 572 446 540 q 535 644 514 604 q 557 740 557 685 q 556 792 557 754 q 542 871 556 831 q 494 942 528 911 q 394 974 461 974 q 309 954 343 974 q 255 899 275 935 q 226 816 235 864 q 218 711 218 768 l 89 711 q 104 812 89 761 q 156 903 119 863 q 250 970 192 944 q 393 996 308 996 q 543 971 485 996 q 634 907 601 946 q 679 819 667 868 q 692 724 692 771 q 651 585 692 639 q 549 492 611 531 q 415 424 488 454 q 275 355 342 393 q 159 264 208 317 q 96 126 110 211 l 638 126 z "},"3":{"ha":803,"x_min":76,"x_max":739,"o":"m 497 501 q 674 419 610 479 q 739 256 739 358 q 708 129 739 179 q 629 49 678 79 q 522 6 581 18 q 407 -7 464 -7 q 292 8 342 -7 q 206 47 242 22 q 145 102 169 71 q 106 166 121 133 q 85 231 92 199 q 76 288 78 263 l 214 288 q 262 88 217 160 q 411 15 307 15 q 553 73 506 15 q 601 258 601 131 q 581 369 601 325 q 528 438 561 413 q 454 474 496 464 q 368 485 413 485 l 368 486 q 352 485 365 486 q 325 485 339 485 q 289 485 308 485 l 289 513 l 364 514 q 448 525 408 514 q 517 563 488 536 q 565 633 547 589 q 582 740 582 676 q 542 915 582 856 q 408 974 501 974 q 276 906 317 974 q 235 701 236 838 l 97 701 q 111 790 99 739 q 158 886 124 840 q 252 964 192 932 q 410 996 313 996 q 526 981 471 996 q 625 933 582 965 q 693 851 668 900 q 718 733 718 801 q 660 583 718 642 q 497 501 601 525 z "},"4":{"ha":736,"x_min":21,"x_max":667,"o":"m 583 233 l 583 63 q 588 43 583 51 q 599 28 592 35 q 619 22 606 22 l 619 8 l 419 8 l 419 22 q 440 28 433 22 q 450 43 447 35 q 454 63 454 51 l 454 233 l 21 233 l 21 247 l 571 996 l 583 996 l 583 256 l 667 256 l 667 233 l 583 233 m 454 801 l 54 256 l 454 256 l 454 801 z "},"5":{"ha":782,"x_min":63,"x_max":725,"o":"m 376 590 q 531 569 465 590 q 639 509 596 547 q 703 418 682 471 q 725 303 725 365 q 694 155 725 214 q 615 60 664 96 q 508 8 567 24 q 393 -7 450 -7 q 231 25 294 -7 q 131 103 168 57 q 80 199 94 149 q 63 289 65 250 l 200 289 q 248 88 203 160 q 397 15 293 15 q 486 36 450 15 q 545 95 522 57 q 578 186 568 133 q 589 303 589 239 q 585 382 589 336 q 559 469 581 428 q 493 539 538 510 q 369 568 449 568 q 274 553 318 568 q 196 519 229 538 q 143 484 163 500 q 121 465 124 468 l 99 465 l 171 981 l 625 982 q 642 985 633 982 q 652 994 647 988 q 657 1011 657 1000 l 671 1011 l 671 864 l 176 864 l 125 499 q 376 590 236 586 z "},"6":{"ha":815,"x_min":56,"x_max":746,"o":"m 433 590 q 521 582 468 590 q 624 543 574 574 q 710 454 674 513 q 746 297 746 396 q 721 160 746 218 q 652 65 696 103 q 549 10 608 28 q 422 -7 490 -7 q 248 31 318 -7 q 135 135 178 68 q 74 297 93 203 q 56 501 56 390 q 60 583 56 533 q 77 687 64 632 q 115 797 90 742 q 178 896 139 851 q 275 968 218 940 q 411 996 332 996 q 567 965 507 996 q 663 890 628 935 q 710 797 697 846 q 722 711 722 749 l 593 711 q 589 782 593 738 q 567 869 585 826 q 512 942 549 911 q 410 974 475 974 q 320 949 357 974 q 260 886 283 925 q 222 797 236 847 q 202 694 208 746 q 194 592 196 642 q 193 503 193 542 l 193 481 q 301 560 239 532 q 433 590 364 589 m 421 15 q 515 38 478 15 q 572 99 551 60 q 601 192 593 139 q 608 306 608 244 q 601 409 608 361 q 573 492 593 457 q 518 549 553 528 q 431 569 483 569 q 336 553 378 569 q 264 515 294 536 q 216 473 233 493 q 193 446 199 453 q 204 289 194 367 q 239 151 214 211 q 308 53 264 90 q 421 15 351 15 z "},"7":{"ha":663,"x_min":14,"x_max":633,"o":"m 633 982 q 619 835 633 896 q 581 726 604 774 q 528 639 558 678 q 467 560 499 600 q 406 472 436 519 q 352 361 375 425 q 315 212 329 297 q 300 8 300 126 l 163 8 q 191 233 163 140 q 263 397 219 326 q 359 520 307 467 q 460 624 411 574 q 548 731 510 675 q 601 863 586 788 l 68 863 q 49 858 57 863 q 35 849 42 856 q 29 828 29 842 l 14 828 l 14 981 l 633 982 z "},"8":{"ha":778,"x_min":56,"x_max":721,"o":"m 518 510 q 598 462 561 488 q 662 405 635 436 q 705 335 689 374 q 721 250 721 297 q 697 138 721 186 q 631 58 674 90 q 528 10 589 26 q 394 -7 468 -7 q 334 -3 369 -7 q 261 10 299 0 q 187 38 224 19 q 121 85 150 56 q 74 155 92 114 q 56 253 56 196 q 83 363 56 317 q 146 440 111 410 q 211 485 181 469 q 247 503 242 500 q 191 544 218 521 q 143 596 164 567 q 110 660 122 625 q 99 738 99 696 q 120 845 99 797 q 181 926 142 893 q 274 978 219 960 q 392 996 328 996 q 498 981 447 996 q 588 934 549 965 q 649 854 626 903 q 672 739 672 806 q 656 652 672 690 q 617 586 640 614 q 567 540 593 558 q 518 510 540 521 m 206 799 q 223 726 206 760 q 268 665 240 693 q 329 614 296 638 q 395 572 363 590 q 456 542 428 554 q 499 521 483 529 q 543 601 522 549 q 564 740 564 653 q 557 819 564 778 q 530 895 550 861 q 474 951 510 929 q 381 974 439 974 q 317 964 349 974 q 261 933 286 954 q 221 878 236 911 q 206 799 206 844 m 400 15 q 553 64 501 15 q 604 190 604 113 q 567 293 604 249 q 478 373 531 338 q 369 436 426 408 q 268 489 311 464 q 233 447 250 472 q 206 391 217 422 q 188 324 194 360 q 181 253 181 289 q 188 183 181 224 q 219 105 196 142 q 286 42 243 68 q 400 15 329 15 z "},"9":{"ha":815,"x_min":69,"x_max":760,"o":"m 393 996 q 567 958 497 996 q 680 853 638 921 q 741 693 722 786 q 760 488 760 600 q 756 407 760 456 q 738 303 751 358 q 700 193 724 249 q 636 93 676 138 q 539 21 596 49 q 403 -7 482 -7 q 247 24 307 -7 q 153 99 188 54 q 106 192 118 143 q 93 278 93 240 l 222 278 q 226 208 222 251 q 249 121 231 164 q 303 47 267 78 q 406 15 340 15 q 495 40 458 15 q 556 103 532 64 q 593 192 579 142 q 613 295 607 243 q 621 398 619 347 q 622 488 622 449 l 622 510 q 514 428 576 457 q 382 399 451 400 q 338 401 367 399 q 275 411 310 403 q 203 438 240 419 q 137 488 167 456 q 88 568 107 519 q 69 688 69 617 q 99 829 69 771 q 176 925 129 888 q 280 979 222 963 q 393 996 338 996 m 383 421 q 478 438 436 421 q 551 475 521 454 q 599 516 581 496 q 622 543 617 536 q 611 701 621 624 q 576 838 601 778 q 508 936 551 899 q 394 974 464 974 q 301 947 338 974 q 243 879 264 921 q 215 786 222 838 q 207 685 207 735 q 215 592 207 639 q 242 507 222 544 q 297 445 263 469 q 383 421 331 421 z "},"\u0000":{"ha":0,"x_min":0,"x_max":0,"o":""},"\r":{"ha":0,"x_min":0,"x_max":0,"o":""}," ":{"ha":410,"x_min":0,"x_max":0,"o":""},"\n":{"ha":0,"x_min":0,"x_max":0,"o":""},"!":{"ha":301,"x_min":67,"x_max":232,"o":"m 72 903 q 71 910 71 906 q 71 915 71 914 q 94 972 71 949 q 151 996 118 996 q 213 968 193 996 q 232 903 232 940 l 163 231 l 140 231 l 72 903 m 151 156 q 208 131 185 154 q 232 74 232 107 q 209 17 232 40 q 153 -7 186 -7 q 94 17 118 -7 q 72 58 76 35 q 76 106 67 82 q 108 142 88 128 q 151 156 128 156 z "},"\"":{"ha":319,"x_min":42,"x_max":282,"o":"m 88 996 q 120 983 107 996 q 133 950 133 969 q 131 935 133 946 l 94 760 l 81 760 l 44 935 q 42 950 42 946 q 55 983 42 969 q 88 996 68 996 m 231 996 q 268 976 256 996 q 274 935 282 958 l 239 760 l 224 760 l 188 935 q 185 957 185 946 q 193 976 186 968 q 210 991 200 986 q 231 996 219 996 z "},"#":{"ha":874,"x_min":69,"x_max":804,"o":"m 592 604 l 544 385 l 753 385 l 749 363 l 540 363 l 496 156 l 474 156 l 518 363 l 300 363 l 256 156 l 233 156 l 278 363 l 69 363 l 74 385 l 282 385 l 329 604 l 121 604 l 125 625 l 333 625 l 378 833 l 400 833 l 356 625 l 574 625 l 618 833 l 640 833 l 596 625 l 804 625 l 800 604 l 592 604 m 569 604 l 351 604 l 304 385 l 524 385 l 569 604 z "},"%":{"ha":896,"x_min":76,"x_max":818,"o":"m 786 985 l 128 -7 l 110 4 l 768 996 l 786 985 m 254 539 q 170 558 204 539 q 115 610 136 578 q 85 684 94 643 q 76 768 76 725 q 85 852 76 811 q 115 925 94 893 q 170 976 136 957 q 254 996 204 996 q 338 976 304 996 q 393 925 372 957 q 423 852 414 893 q 432 768 432 811 q 424 684 432 725 q 394 610 415 643 q 340 558 374 578 q 254 539 306 539 m 254 986 q 166 929 193 986 q 139 768 139 872 q 166 606 139 664 q 254 549 193 549 q 343 605 315 549 q 371 768 371 661 q 343 930 371 874 q 254 986 315 986 m 640 450 q 724 431 690 450 q 779 379 758 411 q 809 306 800 347 q 818 222 818 265 q 810 138 818 179 q 781 65 801 97 q 726 13 760 32 q 640 -7 692 -7 q 556 13 590 -7 q 501 65 522 32 q 472 138 481 97 q 463 222 463 179 q 472 306 463 265 q 501 379 481 347 q 556 431 522 411 q 640 450 590 450 m 640 3 q 728 59 701 3 q 756 222 756 115 q 728 384 756 328 q 640 440 701 440 q 552 383 579 440 q 525 222 525 326 q 552 60 525 118 q 640 3 579 3 z "},"&":{"ha":1072,"x_min":49,"x_max":1010,"o":"m 1010 511 q 931 497 964 511 q 874 460 899 483 q 832 410 850 438 q 797 356 814 383 q 751 287 775 321 q 701 221 728 253 q 769 160 736 189 q 834 110 803 132 q 893 76 865 89 q 943 64 921 64 q 970 72 961 64 q 982 88 979 79 q 988 111 988 97 l 1003 111 q 992 53 1003 78 q 957 11 981 29 q 888 -7 933 -7 q 752 35 821 -7 q 621 133 683 76 q 478 33 554 72 q 311 -7 401 -7 q 192 13 242 -7 q 110 67 142 33 q 63 142 78 100 q 49 231 49 185 q 67 326 49 283 q 114 403 85 369 q 179 460 143 436 q 253 501 215 485 q 157 628 192 567 q 122 763 122 689 q 190 935 122 874 q 369 996 258 996 q 549 937 489 996 q 608 774 608 878 q 583 674 608 717 q 522 603 557 632 q 452 556 488 574 q 396 532 417 539 q 438 489 417 511 q 483 443 460 467 q 578 344 526 399 q 685 236 631 289 q 734 301 711 268 q 779 368 757 333 q 811 444 810 415 q 797 487 813 472 q 755 506 782 501 q 700 510 728 510 l 700 524 l 1010 524 l 1010 511 m 228 829 q 272 683 228 750 q 383 546 315 615 q 425 585 404 561 q 463 640 446 608 q 490 711 479 672 q 500 796 500 750 q 499 830 500 801 q 488 890 499 858 q 449 948 476 922 q 368 974 421 974 q 260 931 293 974 q 228 829 228 888 m 394 57 q 498 79 446 57 q 603 150 550 101 q 513 238 554 194 q 442 313 472 282 q 348 404 392 361 q 267 486 304 447 q 249 472 257 481 q 180 351 199 422 q 176 215 161 281 q 245 103 192 149 q 394 57 299 57 z "},"'":{"ha":175,"x_min":42,"x_max":133,"o":"m 88 996 q 120 983 107 996 q 133 950 133 969 q 131 935 133 946 l 94 760 l 81 760 l 44 935 q 42 950 42 946 q 55 983 42 969 q 88 996 68 996 z "},"(":{"ha":390,"x_min":49,"x_max":349,"o":"m 349 974 q 228 831 271 974 q 186 425 186 689 q 195 211 186 311 q 224 37 204 111 q 274 -81 243 -37 q 349 -124 304 -124 l 349 -144 q 230 -92 285 -144 q 135 42 175 -40 q 72 225 94 124 q 49 425 49 326 q 74 636 49 533 q 140 819 99 739 q 236 947 182 899 q 349 996 290 996 l 349 974 z "},")":{"ha":390,"x_min":42,"x_max":342,"o":"m 42 996 q 154 947 100 996 q 250 819 208 899 q 317 636 292 739 q 342 425 342 533 q 319 225 342 326 q 256 42 296 124 q 160 -92 215 -40 q 42 -144 106 -144 l 42 -124 q 117 -81 86 -124 q 167 37 147 -37 q 195 211 186 111 q 204 425 204 311 q 162 831 204 689 q 42 974 119 974 l 42 996 z "},"*":{"ha":482,"x_min":67,"x_max":411,"o":"m 392 763 q 411 729 411 751 q 392 696 411 707 q 353 696 372 685 q 337 708 349 699 q 310 731 325 718 q 280 758 296 744 q 253 782 264 772 q 261 747 257 767 q 269 707 265 726 q 275 672 272 688 q 278 653 278 657 q 260 619 279 632 q 221 619 239 608 q 201 653 201 631 q 204 672 201 657 q 211 707 207 688 q 219 747 215 726 q 226 782 224 767 q 199 758 215 772 q 169 731 183 744 q 142 708 154 718 q 126 696 131 699 q 107 692 118 692 q 75 710 85 692 q 71 739 67 724 q 89 763 75 754 q 107 770 93 765 q 140 781 121 775 q 178 794 158 788 q 214 806 199 801 q 178 817 199 810 q 140 830 158 824 q 107 842 121 836 q 89 849 93 847 q 71 872 75 857 q 75 901 67 888 q 107 919 85 919 q 126 915 118 919 q 142 903 131 913 q 169 880 154 893 q 199 853 183 867 q 226 829 215 840 q 219 865 224 844 q 211 904 215 885 q 204 939 207 924 q 201 958 201 954 q 214 985 203 974 q 240 996 225 996 q 267 985 256 996 q 278 958 278 974 q 275 939 278 954 q 269 904 272 924 q 261 865 265 885 q 253 829 257 844 q 280 853 264 840 q 310 880 296 867 q 337 903 325 893 q 353 915 349 913 q 392 915 372 926 q 411 882 411 904 q 392 849 411 860 q 373 842 388 847 q 340 830 358 836 q 301 817 321 824 q 267 806 282 810 q 301 794 282 801 q 340 781 321 788 q 373 770 358 775 q 392 763 388 765 z "},"+":{"ha":589,"x_min":63,"x_max":528,"o":"m 528 506 l 528 483 l 306 483 l 306 263 l 283 263 l 283 483 l 63 483 l 63 506 l 283 506 l 283 726 l 306 726 l 306 506 l 528 506 z "},",":{"ha":288,"x_min":63,"x_max":225,"o":"m 224 74 q 215 13 225 43 q 185 -43 206 -14 q 122 -96 164 -72 l 107 -96 q 125 -68 117 -83 q 138 -40 132 -56 q 143 -7 143 -24 q 86 17 110 -7 q 63 74 63 40 q 86 131 63 107 q 143 154 110 154 q 200 131 176 154 q 224 74 224 107 z "},"-":{"ha":638,"x_min":35,"x_max":603,"o":"m 35 389 l 35 410 l 603 410 l 603 389 l 35 389 z "},".":{"ha":289,"x_min":60,"x_max":225,"o":"m 144 156 q 201 131 178 154 q 225 74 225 107 q 202 17 225 40 q 146 -7 179 -7 q 88 17 111 -7 q 65 58 69 35 q 69 106 60 82 q 101 142 81 128 q 144 156 121 156 z "},"/":{"ha":518,"x_min":56,"x_max":461,"o":"m 461 982 l 79 8 l 56 8 l 438 982 l 461 982 z "},":":{"ha":289,"x_min":60,"x_max":225,"o":"m 144 525 q 88 549 111 525 q 64 606 64 572 q 88 663 64 639 q 144 686 111 686 q 201 663 178 686 q 225 606 225 639 q 201 549 225 572 q 144 525 178 525 m 144 156 q 201 131 178 154 q 225 74 225 107 q 202 17 225 40 q 146 -7 179 -7 q 88 17 111 -7 q 65 58 69 35 q 69 106 60 82 q 101 142 81 128 q 144 156 121 156 z "},";":{"ha":288,"x_min":63,"x_max":225,"o":"m 143 525 q 86 549 110 525 q 63 606 63 572 q 86 663 63 639 q 143 686 110 686 q 200 663 176 686 q 224 606 224 639 q 200 549 224 572 q 143 525 176 525 m 224 74 q 215 13 225 43 q 185 -43 206 -14 q 122 -96 164 -72 l 107 -96 q 125 -68 117 -83 q 138 -40 132 -56 q 143 -7 143 -24 q 86 17 110 -7 q 63 74 63 40 q 86 131 63 107 q 143 154 110 154 q 200 131 176 154 q 224 74 224 107 z "},"=":{"ha":563,"x_min":49,"x_max":514,"o":"m 49 582 l 49 604 l 514 604 l 514 582 l 49 582 m 49 383 l 49 406 l 514 406 l 514 383 l 49 383 z "},"?":{"ha":676,"x_min":49,"x_max":628,"o":"m 338 996 q 486 972 429 996 q 574 911 543 947 q 617 834 606 875 q 628 760 628 793 q 605 645 628 688 q 547 573 582 603 q 472 519 513 543 q 397 461 432 496 q 340 373 363 426 q 317 231 317 319 l 294 231 q 309 372 294 315 q 346 468 324 428 q 394 538 368 508 q 442 597 419 567 q 478 665 464 628 q 493 760 493 703 q 491 806 493 771 q 474 878 489 840 q 428 944 460 915 q 339 974 397 974 q 261 955 292 974 q 213 904 231 936 q 186 831 194 872 q 176 744 178 790 l 49 744 q 69 835 53 790 q 119 916 85 881 q 206 974 153 951 q 338 996 260 996 m 306 156 q 363 131 339 154 q 386 74 386 107 q 362 17 386 40 q 306 -7 338 -7 q 249 17 272 -7 q 226 58 231 35 q 231 106 221 82 q 260 142 240 128 q 306 156 281 156 z "},"@":{"ha":994,"x_min":42,"x_max":953,"o":"m 497 904 q 674 869 592 904 q 819 772 757 833 q 917 627 881 710 q 953 450 953 544 l 953 449 q 949 407 953 433 q 934 349 944 381 q 903 287 924 318 q 851 230 883 256 q 772 188 819 204 q 660 171 725 171 q 617 176 639 171 q 581 194 596 182 q 558 225 565 206 q 556 271 550 244 q 557 275 556 274 q 557 278 557 276 q 501 219 538 242 q 403 196 465 196 q 327 208 364 196 q 265 250 290 221 q 228 328 239 279 q 233 449 218 376 q 276 569 249 521 q 340 647 304 618 q 419 689 376 676 q 504 701 461 701 q 594 683 567 701 q 629 632 622 664 l 640 686 l 769 686 l 681 253 q 689 217 676 232 q 731 201 701 201 q 794 217 760 201 q 860 265 829 233 q 910 342 890 296 q 931 450 931 389 q 896 619 931 540 q 802 757 861 699 q 664 849 743 815 q 496 882 585 882 q 272 819 375 882 q 111 647 168 757 q 68 508 78 581 q 72 366 58 436 q 122 233 86 296 q 214 121 157 169 q 348 42 275 68 q 497 15 421 15 q 628 35 564 15 q 749 96 692 56 l 771 85 q 640 16 710 39 q 497 -7 571 -7 q 360 14 428 -7 q 233 78 293 35 q 131 179 174 121 q 65 305 88 238 q 42 444 43 372 q 64 588 42 517 q 128 717 86 658 q 228 817 171 775 q 354 881 286 858 q 497 904 422 904 m 614 554 q 617 592 617 571 q 612 633 618 614 q 590 666 606 653 q 547 679 575 679 q 478 655 508 679 q 426 595 449 631 q 390 520 404 560 q 369 449 376 481 q 360 371 361 411 q 369 298 360 331 q 398 244 378 265 q 453 224 418 224 q 481 227 464 224 q 515 247 497 231 q 551 299 533 264 q 581 397 568 335 l 614 554 z "},"A":{"ha":957,"x_min":7,"x_max":949,"o":"m 899 63 q 921 31 910 39 q 949 22 932 22 l 949 8 l 735 8 l 735 22 q 764 33 757 22 q 764 60 771 44 l 639 357 l 244 357 l 131 86 q 134 42 121 63 q 183 22 147 22 l 183 8 l 7 8 l 7 22 q 68 39 40 21 q 108 89 96 57 l 489 996 l 500 996 l 899 63 m 629 379 l 440 824 l 254 379 l 629 379 z "},"B":{"ha":889,"x_min":69,"x_max":839,"o":"m 551 518 q 662 498 610 513 q 753 454 714 483 q 816 380 793 425 q 839 267 839 335 q 801 123 839 175 q 691 46 763 71 q 518 15 619 21 q 290 8 417 8 l 69 8 l 69 22 q 91 28 83 22 q 101 43 99 35 q 106 63 106 51 l 106 928 q 101 947 106 939 q 91 960 99 954 q 69 967 83 967 l 69 982 l 253 982 q 474 980 374 982 q 646 957 574 978 q 758 887 718 936 q 797 742 797 838 q 781 652 797 690 q 732 588 764 614 q 654 544 700 561 q 551 518 608 528 m 233 524 q 306 525 271 524 l 411 525 q 508 538 463 528 q 587 571 553 547 q 640 635 621 594 q 660 742 660 676 q 625 877 660 832 q 533 941 590 922 q 403 960 476 960 q 253 960 331 960 l 233 960 l 233 524 m 354 31 q 406 30 372 31 q 478 34 439 29 q 556 51 517 39 q 628 90 596 64 q 682 160 661 117 q 703 267 703 203 q 664 412 703 363 q 563 481 625 461 q 424 501 501 500 q 269 501 347 501 l 233 501 l 233 31 l 354 31 z "},"C":{"ha":971,"x_min":42,"x_max":914,"o":"m 564 15 q 688 40 631 15 q 788 104 744 64 q 860 196 831 144 q 900 303 889 247 l 914 303 l 897 131 q 847 83 876 108 q 774 39 817 58 q 674 6 731 19 q 543 -7 618 -7 q 315 36 410 -7 q 160 149 221 79 q 70 310 99 219 q 42 494 42 400 q 70 679 42 589 q 160 840 99 769 q 315 953 221 910 q 543 996 410 996 q 679 981 621 996 q 781 946 738 967 q 852 901 824 925 q 897 858 881 878 l 914 686 l 900 686 q 854 803 886 750 q 778 894 822 856 q 678 953 733 932 q 564 974 624 974 q 417 942 486 974 q 294 848 347 910 q 210 697 242 786 q 179 494 179 608 q 210 292 179 381 q 294 141 242 203 q 417 47 347 79 q 564 15 486 15 z "},"D":{"ha":997,"x_min":69,"x_max":956,"o":"m 454 982 q 682 942 588 982 q 838 833 776 901 q 927 677 899 765 q 956 494 956 589 q 927 312 956 400 q 838 156 899 224 q 682 49 776 89 q 454 8 588 8 l 69 8 l 69 22 q 91 28 83 22 q 101 43 99 35 q 106 63 106 51 l 106 928 q 101 947 106 939 q 91 960 99 954 q 69 967 83 967 l 69 982 l 454 982 m 433 31 q 581 60 511 31 q 703 149 650 90 q 787 294 756 207 q 818 494 818 381 q 787 695 818 608 q 703 841 756 782 q 581 930 650 900 q 433 960 511 960 l 233 960 l 235 31 l 433 31 z "},"E":{"ha":794,"x_min":69,"x_max":746,"o":"m 615 31 q 697 63 671 31 q 731 140 722 94 l 746 140 l 732 8 l 69 8 l 69 22 q 91 28 83 22 q 101 43 99 35 q 106 63 106 51 l 106 928 q 101 947 106 939 q 91 960 99 954 q 69 967 83 967 l 69 981 l 732 981 l 746 849 l 731 849 q 697 928 722 896 q 615 960 671 960 l 235 960 l 235 524 l 533 524 q 571 535 554 525 q 596 561 585 543 q 607 613 607 579 l 621 613 l 621 413 l 607 413 q 596 464 607 446 q 571 490 585 482 q 533 501 554 500 l 235 501 l 235 31 l 615 31 z "},"F":{"ha":757,"x_min":69,"x_max":728,"o":"m 728 849 l 714 849 q 679 928 704 896 q 599 960 654 960 l 235 960 l 235 506 l 533 506 q 571 517 554 507 q 596 543 585 525 q 607 594 607 561 l 622 594 l 622 394 l 607 394 q 596 446 607 428 q 571 472 585 464 q 535 483 556 482 l 235 483 l 235 63 q 239 43 235 51 q 249 28 242 35 q 269 22 257 22 l 269 8 l 69 8 l 69 22 q 91 28 83 22 q 101 43 99 35 q 106 63 106 51 l 106 928 q 101 947 106 939 q 91 960 99 954 q 69 967 83 967 l 69 982 l 715 982 l 728 849 z "},"G":{"ha":1014,"x_min":43,"x_max":951,"o":"m 951 494 l 951 479 q 931 473 938 479 q 919 460 924 467 q 915 440 915 451 l 915 149 q 865 97 897 124 q 787 47 833 69 q 680 8 740 24 q 544 -7 619 -7 q 317 36 411 -7 q 161 149 222 79 q 72 310 100 219 q 43 494 43 400 q 72 679 43 589 q 161 840 100 769 q 317 953 222 910 q 544 996 411 996 q 678 981 622 996 q 775 946 735 967 q 842 901 815 925 q 885 858 868 878 l 901 686 l 888 686 q 844 803 874 750 q 772 894 814 856 q 678 953 731 932 q 565 974 625 974 q 418 942 488 974 q 296 848 349 910 q 212 697 243 786 q 181 494 181 608 q 212 292 181 381 q 296 142 243 203 q 418 48 349 81 q 565 15 488 15 q 685 38 628 15 q 786 101 742 60 l 786 472 l 536 472 l 536 494 l 951 494 z "},"H":{"ha":899,"x_min":69,"x_max":828,"o":"m 828 967 q 808 960 815 967 q 797 947 800 954 q 793 928 793 939 l 793 63 q 797 43 793 51 q 808 28 800 35 q 828 22 815 22 l 828 8 l 628 8 l 628 22 q 649 28 642 22 q 660 43 657 35 q 664 63 664 51 l 664 483 l 235 483 l 235 63 q 239 43 235 51 q 249 28 242 35 q 269 22 257 22 l 269 8 l 69 8 l 69 22 q 91 28 83 22 q 101 43 99 35 q 106 63 106 51 l 106 928 q 101 947 106 939 q 91 960 99 954 q 69 967 83 967 l 69 982 l 269 982 l 269 967 q 249 960 257 967 q 239 947 242 954 q 235 928 235 939 l 235 506 l 664 506 l 664 928 q 660 947 664 939 q 649 960 657 954 q 628 967 642 967 l 628 982 l 828 982 l 828 967 z "},"I":{"ha":340,"x_min":69,"x_max":269,"o":"m 269 967 q 249 960 257 967 q 239 947 242 954 q 235 928 235 939 l 235 63 q 239 43 235 51 q 249 28 242 35 q 269 22 257 22 l 269 8 l 69 8 l 69 22 q 91 28 83 22 q 101 43 99 35 q 106 63 106 51 l 106 928 q 101 947 106 939 q 91 960 99 954 q 69 967 83 967 l 69 982 l 269 982 l 269 967 z "},"J":{"ha":346,"x_min":-28,"x_max":275,"o":"m 275 982 l 275 967 q 255 960 263 967 q 244 947 247 954 q 240 928 240 939 l 240 22 q 215 -67 238 -28 q 155 -126 197 -99 q 35 -154 113 -154 q -28 -146 4 -154 l -21 -126 q 11 -131 -4 -131 q 65 -115 44 -131 q 95 -80 85 -100 q 108 -39 106 -60 q 111 -7 111 -18 l 111 928 q 110 934 111 928 q 106 948 110 940 q 95 961 103 956 q 75 967 88 967 l 75 982 l 275 982 z "},"K":{"ha":838,"x_min":69,"x_max":831,"o":"m 69 982 l 269 982 l 269 967 q 249 960 257 967 q 239 947 242 954 q 235 928 235 939 l 235 63 q 239 43 235 51 q 249 28 242 35 q 269 22 257 22 l 269 8 l 69 8 l 69 22 q 91 28 83 22 q 101 43 99 35 q 106 63 106 51 l 106 928 q 101 947 106 939 q 91 960 99 954 q 69 967 83 967 l 69 982 m 782 54 q 803 34 789 46 q 831 22 817 22 l 831 8 l 690 8 q 647 29 663 8 q 610 77 633 47 q 559 144 588 107 q 499 222 531 181 q 436 303 467 263 q 279 503 363 396 l 603 844 q 642 894 631 874 q 654 928 654 914 q 644 954 654 944 q 618 967 635 967 l 618 981 l 818 981 l 818 967 q 777 956 801 967 q 728 926 753 944 q 678 888 703 908 q 636 849 654 868 l 382 578 l 782 54 z "},"L":{"ha":760,"x_min":69,"x_max":746,"o":"m 746 140 l 732 8 l 69 8 l 69 22 q 91 28 83 22 q 101 43 99 35 q 106 63 106 51 l 106 926 q 101 947 106 938 q 91 960 99 954 q 69 967 83 967 l 69 981 l 269 981 l 269 967 q 249 960 257 967 q 239 947 242 954 q 235 926 235 938 l 235 29 l 615 29 q 697 62 671 29 q 731 140 722 94 l 746 140 z "},"M":{"ha":1093,"x_min":35,"x_max":1022,"o":"m 1022 967 q 1002 960 1010 967 q 992 947 994 954 q 988 928 988 939 l 988 63 q 992 43 988 51 q 1002 28 994 35 q 1022 22 1010 22 l 1022 8 l 822 8 l 822 22 q 844 28 836 22 q 854 43 851 35 q 858 63 858 51 l 858 904 l 517 99 l 494 99 l 146 878 l 146 96 q 157 60 147 75 q 183 35 165 46 q 235 24 201 24 l 235 8 l 35 8 l 35 24 q 86 35 68 24 q 113 60 104 46 q 124 96 122 75 l 124 901 q 119 919 122 908 q 106 941 115 931 q 79 959 96 951 q 36 967 63 967 l 36 982 l 231 982 q 257 965 247 982 l 567 272 l 867 981 l 1022 982 l 1022 967 z "},"N":{"ha":913,"x_min":35,"x_max":878,"o":"m 878 982 l 878 967 q 826 956 844 967 q 800 931 808 944 q 789 894 790 915 l 789 -6 l 774 -6 l 146 897 l 146 97 q 157 61 147 76 q 183 35 165 46 q 235 24 201 24 l 235 8 l 35 8 l 35 24 q 86 35 68 24 q 113 60 104 46 q 124 96 122 75 l 124 893 q 113 931 122 914 q 86 956 104 944 q 35 967 68 967 l 35 981 l 239 981 q 263 969 254 981 l 767 249 l 767 894 q 756 931 765 915 q 729 956 747 944 q 678 967 711 967 l 678 982 l 878 982 z "},"O":{"ha":1031,"x_min":42,"x_max":989,"o":"m 515 996 q 739 953 649 996 q 885 840 829 910 q 965 679 940 769 q 989 494 989 589 q 965 310 989 400 q 885 149 940 219 q 739 36 829 79 q 515 -7 649 -7 q 292 36 382 -7 q 146 149 201 79 q 66 310 90 219 q 42 494 42 400 q 66 679 42 589 q 146 840 90 769 q 292 953 201 910 q 515 996 382 996 m 515 15 q 761 138 671 15 q 851 494 851 261 q 761 851 851 728 q 515 974 671 974 q 376 942 438 974 q 270 848 314 910 q 203 697 226 786 q 179 494 179 608 q 203 292 179 381 q 270 141 226 203 q 376 47 314 79 q 515 15 438 15 z "},"P":{"ha":838,"x_min":71,"x_max":803,"o":"m 360 982 q 522 978 443 982 q 664 947 601 974 q 765 866 726 921 q 803 708 803 811 q 772 563 803 617 q 686 481 740 510 q 560 444 632 453 q 404 436 488 436 l 235 436 l 236 63 q 240 43 236 51 q 251 28 243 35 q 271 22 258 22 l 271 8 l 71 8 l 71 22 q 92 28 85 22 q 103 43 100 35 q 107 63 107 51 l 107 928 q 103 947 107 939 q 92 960 100 954 q 71 967 85 967 l 71 982 l 360 982 m 425 458 q 488 464 447 458 q 567 494 528 469 q 636 568 607 518 q 665 708 665 618 q 645 838 665 789 q 592 915 625 888 q 514 951 558 942 q 419 960 469 960 l 235 960 l 235 458 l 425 458 z "},"Q":{"ha":1042,"x_min":42,"x_max":999,"o":"m 999 -4 l 886 -137 q 825 -142 856 -142 q 646 -101 725 -142 q 500 -7 567 -61 q 285 40 372 -4 q 143 153 197 83 q 65 313 89 224 q 42 494 42 401 q 66 679 42 589 q 146 840 90 769 q 292 953 201 910 q 515 996 382 996 q 739 953 649 996 q 885 840 829 910 q 965 679 940 769 q 989 494 989 589 q 966 315 989 403 q 891 158 943 228 q 754 43 839 88 q 546 -7 669 -1 l 543 -7 q 572 -22 551 -14 q 622 -36 592 -29 q 688 -48 651 -43 q 765 -53 725 -53 q 881 -40 822 -53 q 992 4 939 -28 l 999 -4 m 179 494 q 203 292 179 381 q 270 142 226 203 q 376 48 314 81 q 515 15 438 15 q 761 138 671 15 q 851 494 851 261 q 761 851 851 728 q 515 974 671 974 q 376 942 438 974 q 270 848 314 910 q 203 697 226 786 q 179 494 179 608 z "},"R":{"ha":889,"x_min":71,"x_max":868,"o":"m 819 54 q 868 22 835 29 l 868 8 l 728 8 q 685 29 701 6 l 392 471 l 235 471 l 236 63 q 240 43 236 51 q 251 28 243 35 q 271 22 258 22 l 271 8 l 71 8 l 71 22 q 92 28 85 22 q 103 43 100 35 q 107 63 107 51 l 107 928 q 103 947 107 939 q 92 960 100 954 q 71 967 85 967 l 71 982 l 360 982 q 513 978 435 982 q 654 950 590 974 q 758 874 718 926 q 799 726 799 822 q 778 609 799 656 q 721 534 757 563 q 638 492 685 506 q 539 475 592 479 l 819 54 m 418 493 q 481 497 440 493 q 563 523 522 501 q 633 592 603 544 q 663 726 663 639 q 638 859 663 813 q 575 928 614 906 q 488 956 536 951 q 389 960 439 960 l 235 960 l 235 493 l 418 493 z "},"S":{"ha":781,"x_min":49,"x_max":732,"o":"m 422 558 q 540 503 485 529 q 639 443 596 476 q 707 365 682 410 q 732 257 732 321 q 639 61 732 129 q 382 -7 546 -7 q 253 9 308 -7 q 160 47 199 25 q 99 90 122 68 q 65 121 75 111 l 49 290 l 64 290 q 116 156 83 210 q 190 72 149 103 q 281 28 232 40 q 385 15 331 15 q 554 68 493 15 q 615 201 615 121 q 587 287 615 250 q 517 351 558 324 q 427 401 475 379 q 339 440 379 422 q 258 477 306 456 q 165 532 210 499 q 88 613 119 565 q 57 729 57 661 q 80 839 57 790 q 146 923 103 888 q 249 977 189 958 q 385 996 310 996 q 544 969 468 999 q 679 883 619 940 l 697 711 l 682 711 q 583 906 654 839 q 388 974 513 974 q 298 960 339 974 q 227 924 257 947 q 181 867 197 900 q 164 792 164 833 q 185 712 164 746 q 243 652 207 678 q 326 604 279 626 q 422 558 372 582 z "},"T":{"ha":783,"x_min":7,"x_max":775,"o":"m 775 849 l 761 849 q 726 928 751 896 q 646 960 701 960 l 456 960 l 456 63 q 460 43 456 51 q 471 28 464 35 q 492 22 478 22 l 492 8 l 292 8 l 292 22 q 313 28 306 22 q 322 43 319 35 q 326 63 326 51 l 326 960 l 138 960 q 56 928 82 960 q 22 849 31 896 l 7 849 l 21 982 l 763 982 l 775 849 z "},"U":{"ha":897,"x_min":63,"x_max":861,"o":"m 861 981 l 861 967 q 810 956 828 967 q 783 931 792 944 q 772 893 774 914 l 772 368 q 756 209 772 279 q 703 91 740 139 q 603 18 665 43 q 446 -7 540 -7 q 315 10 378 -7 q 203 70 251 28 q 127 183 156 113 q 99 361 99 254 l 99 928 q 94 947 99 939 q 84 960 92 954 q 63 967 76 967 l 63 982 l 263 982 l 263 967 q 242 960 250 967 q 232 947 235 954 q 228 928 228 939 l 228 315 q 236 215 228 268 q 272 118 244 163 q 348 44 299 74 q 478 15 397 15 q 576 31 529 14 q 663 81 624 49 q 732 202 714 128 q 750 368 750 276 l 750 893 q 739 931 749 914 q 713 956 731 944 q 661 967 694 967 l 661 981 l 861 981 z "},"V":{"ha":936,"x_min":7,"x_max":929,"o":"m 929 982 l 929 967 q 868 950 896 968 q 828 901 840 932 l 457 -7 l 446 -7 l 57 928 q 35 959 46 951 q 7 967 24 967 l 7 982 l 222 982 l 222 967 q 192 956 199 967 q 192 929 185 944 l 506 165 l 806 904 q 802 947 815 928 q 751 967 789 967 l 751 982 l 929 982 z "},"W":{"ha":1338,"x_min":7,"x_max":1331,"o":"m 1331 982 l 1331 967 q 1273 953 1299 969 q 1236 907 1247 936 l 938 -7 l 926 -7 l 679 661 l 429 -7 l 418 -7 l 56 928 q 34 959 44 951 q 7 967 24 967 l 7 982 l 222 982 l 222 967 q 193 957 201 967 q 189 932 185 947 l 474 175 l 667 693 l 581 928 q 560 959 569 951 q 533 967 550 967 l 533 982 l 747 982 l 747 967 q 719 958 728 967 q 713 933 710 949 l 979 188 l 1210 900 q 1206 947 1219 928 q 1153 967 1192 967 l 1153 982 l 1331 982 z "},"X":{"ha":904,"x_min":15,"x_max":890,"o":"m 829 49 q 890 22 853 19 l 890 8 l 638 8 l 638 22 q 670 32 661 22 q 668 61 679 42 l 417 444 l 160 89 q 147 42 140 61 q 192 22 154 22 l 192 8 l 15 8 l 15 22 q 75 36 47 22 q 131 88 103 50 l 403 465 l 94 935 q 66 959 83 950 q 29 967 49 968 l 29 982 l 281 982 l 281 967 q 248 958 258 967 q 251 928 238 950 l 486 571 l 724 900 q 738 947 744 928 q 692 967 731 967 l 692 982 l 869 982 l 869 967 q 809 953 836 967 q 753 900 782 939 l 500 550 l 829 49 z "},"Y":{"ha":829,"x_min":7,"x_max":821,"o":"m 821 982 l 821 967 q 753 951 785 969 q 706 900 722 933 l 469 489 l 469 60 q 479 33 469 46 q 506 22 490 22 l 506 8 l 306 8 l 306 22 q 331 33 321 22 q 340 60 340 44 l 340 471 l 72 935 q 44 959 61 950 q 7 967 26 968 l 7 982 l 253 982 l 253 967 q 219 959 229 967 q 222 928 210 951 l 457 515 l 676 900 q 687 947 692 928 q 644 967 682 967 l 644 982 l 821 982 z "},"Z":{"ha":786,"x_min":35,"x_max":750,"o":"m 607 31 q 688 63 663 31 q 722 140 714 96 l 736 140 l 724 8 l 35 8 l 35 31 l 608 960 l 176 960 q 95 926 121 960 q 61 849 69 893 l 47 849 l 61 982 l 750 982 l 750 960 l 179 31 l 607 31 z "},"_":{"ha":713,"x_min":83,"x_max":628,"o":"m 83 -29 l 83 -7 l 628 -7 l 628 -29 l 83 -29 z "},"a":{"ha":706,"x_min":49,"x_max":650,"o":"m 614 63 q 618 43 614 51 q 629 28 622 35 q 650 22 636 22 l 650 8 l 513 8 q 493 17 501 8 q 485 36 485 25 l 485 132 q 447 64 469 90 q 398 22 424 38 q 344 -1 372 6 q 292 -7 317 -7 q 268 -7 288 -7 q 222 -4 249 -7 q 164 8 194 -1 q 108 35 133 17 q 65 82 82 53 q 49 156 49 111 q 67 233 49 200 q 123 294 86 265 q 215 349 160 322 q 343 408 269 376 q 451 463 418 440 q 485 524 485 485 l 485 538 q 476 583 485 560 q 448 624 467 606 q 402 653 429 642 q 339 664 375 664 q 267 649 297 664 q 216 610 236 635 q 187 554 196 586 q 178 488 178 522 l 74 524 q 99 572 81 544 q 151 626 118 600 q 235 669 185 651 q 358 686 286 686 q 478 667 429 686 q 557 616 526 647 q 601 548 588 585 q 614 475 614 511 l 614 63 m 485 464 q 440 433 469 449 q 358 392 410 417 q 267 329 301 364 q 215 260 233 294 q 192 197 197 226 q 186 149 186 167 q 190 109 186 132 q 208 65 194 86 q 244 30 221 44 q 307 15 268 15 q 394 41 360 15 q 449 101 429 67 q 476 167 468 135 q 485 214 485 200 l 485 464 z "},"b":{"ha":775,"x_min":71,"x_max":732,"o":"m 451 686 q 565 659 514 686 q 654 585 617 632 q 712 474 692 538 q 732 340 732 411 q 713 205 732 268 q 657 94 694 142 q 565 20 619 47 q 438 -7 510 -7 q 359 6 393 -7 q 301 39 325 18 q 262 88 278 60 q 236 144 246 115 l 236 36 q 228 17 236 25 q 208 8 219 8 l 71 8 l 71 22 q 92 28 85 22 q 103 43 100 35 q 107 63 107 51 l 107 928 q 103 947 107 939 q 92 960 100 954 q 71 967 85 967 l 71 982 l 208 982 q 228 974 219 982 q 236 954 236 965 l 236 536 q 263 592 246 565 q 305 640 279 619 q 367 674 331 661 q 451 686 403 686 m 415 22 q 493 47 460 22 q 549 114 526 71 q 584 215 572 157 q 596 340 596 274 q 585 465 596 407 q 552 567 575 524 q 495 634 529 610 q 413 658 461 658 q 283 590 329 658 q 236 390 236 521 l 236 283 q 247 192 236 239 q 278 108 257 146 q 334 47 300 71 q 415 22 368 22 z "},"c":{"ha":710,"x_min":43,"x_max":661,"o":"m 661 171 q 606 82 643 121 q 516 21 574 49 q 367 -7 458 -7 q 219 20 281 -7 q 118 94 157 47 q 61 205 79 142 q 43 340 43 268 q 61 474 43 411 q 118 585 79 538 q 219 659 157 632 q 367 686 281 686 q 470 674 425 686 q 549 642 515 663 q 608 594 583 621 q 649 536 632 567 l 563 474 q 536 549 550 514 q 501 609 522 583 q 451 649 481 635 q 378 664 421 664 q 289 638 326 664 q 228 569 251 613 q 192 466 204 525 q 181 340 181 407 q 195 213 181 274 q 240 108 210 153 q 317 40 269 64 q 431 22 364 17 q 558 69 501 28 q 639 175 614 110 l 661 171 z "},"d":{"ha":774,"x_min":42,"x_max":703,"o":"m 703 967 q 683 960 690 967 q 672 947 675 954 q 668 928 668 939 l 668 63 q 672 43 668 51 q 683 28 675 35 q 703 22 690 22 l 703 8 l 567 8 q 547 17 556 8 q 539 36 539 25 l 539 144 q 512 87 529 114 q 469 39 494 60 q 407 6 443 18 q 322 -7 371 -7 q 208 20 260 -7 q 120 94 157 47 q 63 205 83 142 q 42 340 42 268 q 63 476 42 413 q 124 585 85 539 q 222 659 164 632 q 350 686 279 686 q 421 675 390 686 q 474 646 451 664 q 513 606 497 628 q 539 561 529 583 l 539 954 q 547 974 539 965 q 567 982 556 982 l 703 982 l 703 967 m 539 481 q 528 528 539 497 q 497 589 518 558 q 444 642 476 619 q 365 664 411 664 q 286 638 321 664 q 228 569 251 613 q 192 466 204 525 q 179 340 179 407 q 190 215 179 274 q 223 114 200 157 q 281 47 246 71 q 363 22 315 22 q 492 91 446 22 q 539 289 539 160 l 539 481 z "},"e":{"ha":739,"x_min":42,"x_max":690,"o":"m 429 22 q 556 69 500 28 q 638 175 613 110 l 660 169 q 604 82 642 119 q 515 21 572 49 q 365 -7 457 -7 q 217 20 279 -7 q 117 94 156 47 q 60 205 78 142 q 42 340 42 268 q 60 474 42 411 q 117 585 78 538 q 217 659 156 632 q 365 686 279 686 q 538 648 474 686 q 636 557 603 610 q 680 447 669 504 q 690 354 690 390 l 179 354 l 179 340 q 194 213 179 274 q 238 108 208 153 q 315 40 268 64 q 429 22 363 17 m 365 664 q 289 642 322 664 q 232 581 256 619 q 195 490 208 542 q 179 376 182 438 l 551 376 l 551 378 q 493 594 542 525 q 365 664 444 664 z "},"f":{"ha":579,"x_min":35,"x_max":565,"o":"m 367 974 q 317 963 338 974 q 283 933 296 951 q 263 892 269 915 q 256 847 256 869 l 256 672 l 447 672 l 447 650 l 256 650 l 256 63 q 260 43 256 51 q 270 28 263 35 q 290 22 278 22 l 290 8 l 90 8 l 90 22 q 112 28 104 22 q 122 43 119 35 q 126 63 126 51 l 126 650 l 35 650 l 35 672 l 126 672 l 126 761 q 127 785 126 767 q 134 831 128 804 q 153 886 140 857 q 192 940 167 915 q 255 980 217 964 q 349 996 293 996 q 442 982 403 996 q 506 951 481 968 q 546 917 532 933 q 565 893 560 900 l 478 819 q 474 868 478 842 q 458 918 469 894 q 424 958 446 942 q 367 974 403 974 z "},"g":{"ha":775,"x_min":56,"x_max":768,"o":"m 706 597 q 682 649 706 625 q 626 672 658 672 q 592 665 610 672 q 560 639 575 657 q 648 544 618 603 q 678 406 678 485 q 658 292 678 343 q 598 203 638 240 q 501 145 558 165 q 368 125 443 125 q 171 176 261 121 l 138 131 q 122 83 110 94 q 171 69 133 71 l 499 69 q 590 53 551 69 q 653 10 628 38 q 690 -51 678 -17 q 701 -125 701 -86 q 678 -211 701 -175 q 617 -270 656 -247 q 528 -304 579 -293 q 419 -315 476 -315 q 226 -289 324 -315 q 57 -214 128 -262 l 144 -112 q 170 -153 150 -124 q 225 -214 190 -182 q 310 -270 260 -246 q 429 -294 361 -294 q 542 -281 494 -294 q 619 -244 589 -267 q 665 -195 650 -222 q 679 -140 679 -168 q 654 -78 679 -97 q 581 -60 629 -60 l 157 -60 q 126 -58 144 -60 q 93 -47 108 -56 q 67 -22 78 -39 q 56 25 56 -4 q 58 54 56 42 q 68 79 61 67 q 88 108 75 92 q 119 147 100 124 l 153 189 q 57 406 57 265 q 136 611 57 536 q 367 686 215 686 q 540 650 457 689 q 606 708 572 692 q 672 724 640 724 q 728 713 704 724 q 768 686 753 701 l 706 597 m 367 147 q 492 215 451 147 q 533 406 533 283 q 492 596 533 528 q 367 664 451 664 q 242 596 283 664 q 201 406 201 528 q 242 215 201 283 q 367 147 283 147 z "},"h":{"ha":778,"x_min":71,"x_max":722,"o":"m 686 63 q 690 43 686 51 q 701 28 694 35 q 722 22 708 22 l 722 8 l 522 8 l 522 22 q 543 28 536 22 q 553 43 550 35 q 557 63 557 51 l 557 538 q 548 582 557 560 q 522 622 539 604 q 479 651 504 640 q 421 663 454 663 q 344 644 378 663 q 285 601 310 626 q 249 546 261 575 q 236 494 236 517 l 236 63 q 240 43 236 51 q 251 28 243 35 q 271 22 258 22 l 271 8 l 71 8 l 71 22 q 92 28 85 22 q 103 43 100 35 q 107 63 107 51 l 107 928 q 103 947 107 939 q 92 960 100 954 q 71 967 85 967 l 71 982 l 208 982 q 228 974 219 982 q 236 954 236 965 l 236 568 q 320 658 265 626 q 440 686 375 689 q 532 672 488 686 q 610 631 576 658 q 665 565 644 604 q 686 472 686 525 l 686 63 z "},"i":{"ha":333,"x_min":69,"x_max":269,"o":"m 164 764 q 102 790 128 764 q 76 851 76 815 q 102 913 76 888 q 164 939 128 939 q 226 914 201 939 q 251 869 246 894 q 246 818 257 843 q 213 778 235 793 q 164 764 192 764 m 235 63 q 239 43 235 51 q 249 28 242 35 q 269 22 257 22 l 269 8 l 69 8 l 69 22 q 91 28 83 22 q 101 43 99 35 q 106 63 106 51 l 106 618 q 101 638 106 629 q 91 651 99 644 q 69 657 83 657 l 69 672 l 207 672 q 226 664 218 672 q 235 644 235 656 l 235 63 z "},"j":{"ha":331,"x_min":-68,"x_max":265,"o":"m 172 764 q 110 790 136 764 q 85 851 85 815 q 110 913 85 888 q 172 939 136 939 q 235 914 210 939 q 260 869 254 894 q 254 818 265 843 q 222 779 243 794 q 172 764 200 764 m 210 672 q 229 664 221 672 q 238 644 238 656 l 238 -140 q 213 -229 235 -190 q 188 -261 203 -246 q 152 -289 174 -276 q 101 -309 131 -301 q 33 -317 72 -317 q -68 -290 -19 -318 l -56 -274 q 8 -293 -25 -293 q 62 -278 42 -293 q 92 -242 82 -262 q 106 -201 103 -222 q 108 -169 108 -181 l 108 618 q 104 638 108 629 q 94 651 101 644 q 72 657 86 657 l 72 672 l 210 672 z "},"k":{"ha":718,"x_min":71,"x_max":710,"o":"m 664 57 q 682 36 669 50 q 710 22 694 22 l 710 8 l 569 8 q 524 33 539 8 l 308 357 l 236 276 l 236 63 q 240 43 236 51 q 251 28 243 35 q 271 22 258 22 l 271 8 l 71 8 l 71 22 q 92 28 85 22 q 103 43 100 35 q 107 63 107 51 l 107 928 q 103 947 107 939 q 92 960 100 954 q 71 967 85 967 l 71 982 l 208 982 q 228 974 217 982 q 236 954 236 963 l 236 310 l 442 535 q 476 585 469 565 q 483 618 483 604 q 474 644 486 633 q 447 657 465 657 l 447 672 l 647 672 l 647 657 q 602 642 628 657 q 550 605 576 626 q 499 560 524 583 q 457 518 474 536 l 397 454 l 664 57 z "},"l":{"ha":340,"x_min":69,"x_max":269,"o":"m 235 63 q 239 43 235 51 q 249 28 242 35 q 269 22 257 22 l 269 8 l 69 8 l 69 22 q 91 28 83 22 q 101 43 99 35 q 106 63 106 51 l 106 928 q 101 947 106 939 q 91 960 99 954 q 69 967 83 967 l 69 981 l 207 981 q 226 974 217 981 q 235 954 235 963 l 235 63 z "},"m":{"ha":1076,"x_min":69,"x_max":1014,"o":"m 978 63 q 982 43 978 51 q 993 28 986 35 q 1014 22 1000 22 l 1014 8 l 814 8 l 814 22 q 835 28 828 22 q 844 43 842 35 q 849 63 849 51 l 849 539 q 846 571 849 550 q 833 612 843 592 q 803 647 822 632 q 750 663 783 663 q 683 644 711 663 q 638 601 656 626 q 613 546 621 575 q 606 494 606 517 l 606 63 q 610 43 606 51 q 621 28 614 35 q 642 22 628 22 l 642 8 l 442 8 l 442 22 q 463 28 456 22 q 474 43 471 35 q 478 63 478 51 l 478 539 q 476 571 478 550 q 467 612 475 592 q 440 647 458 632 q 389 663 422 663 q 321 640 350 663 q 273 585 292 617 q 244 521 254 554 q 235 465 235 488 l 235 63 q 239 43 235 51 q 249 28 242 35 q 269 22 257 22 l 269 8 l 69 8 l 69 22 q 91 28 83 22 q 101 43 99 35 q 106 63 106 51 l 106 618 q 101 638 106 629 q 91 651 99 644 q 69 657 83 657 l 69 672 l 207 672 q 226 664 218 672 q 235 644 235 656 l 235 558 q 259 604 244 582 q 295 645 274 626 q 346 675 317 664 q 413 686 375 686 q 492 675 460 686 q 547 647 525 664 q 581 608 569 629 q 599 568 593 588 q 619 610 606 589 q 653 648 632 631 q 703 676 674 665 q 774 686 733 686 q 842 678 813 686 q 892 658 871 671 q 928 631 914 646 q 953 599 943 615 q 978 510 975 560 l 978 63 z "},"n":{"ha":783,"x_min":69,"x_max":721,"o":"m 685 63 q 689 43 685 51 q 700 28 693 35 q 721 22 707 22 l 721 8 l 521 8 l 521 22 q 542 28 535 22 q 551 43 549 35 q 556 63 556 51 l 556 538 q 547 582 556 560 q 520 622 538 604 q 478 651 503 640 q 419 663 453 663 q 342 644 376 663 q 284 601 308 626 q 247 546 260 575 q 235 494 235 517 l 235 63 q 239 43 235 51 q 249 28 242 35 q 269 22 257 22 l 269 8 l 69 8 l 69 22 q 91 28 83 22 q 101 43 99 35 q 106 63 106 51 l 106 618 q 101 638 106 629 q 91 651 99 644 q 69 657 83 657 l 69 672 l 207 672 q 226 664 218 672 q 235 644 235 656 l 235 568 q 319 658 264 626 q 439 686 374 689 q 531 672 486 686 q 609 631 575 658 q 664 565 643 604 q 685 472 685 525 l 685 63 z "},"o":{"ha":732,"x_min":42,"x_max":690,"o":"m 365 686 q 513 659 451 686 q 615 585 575 632 q 672 474 654 538 q 690 340 690 411 q 672 205 690 268 q 615 94 654 142 q 514 20 575 47 q 365 -7 453 -7 q 217 20 279 -7 q 117 94 156 47 q 60 205 78 142 q 42 340 42 268 q 60 474 42 411 q 117 585 78 538 q 217 659 156 632 q 365 686 279 686 m 365 15 q 449 41 414 15 q 508 110 485 67 q 542 214 531 154 q 553 340 553 274 q 542 466 553 407 q 508 569 531 525 q 449 638 485 613 q 365 664 414 664 q 283 638 318 664 q 224 569 247 613 q 190 466 201 525 q 179 340 179 407 q 190 214 179 274 q 224 110 201 154 q 283 41 247 67 q 365 15 318 15 z "},"p":{"ha":774,"x_min":69,"x_max":731,"o":"m 450 686 q 564 659 513 686 q 653 585 615 632 q 710 474 690 538 q 731 340 731 411 q 709 205 731 268 q 648 94 688 142 q 551 20 608 47 q 422 -7 494 -7 q 353 4 383 -7 q 299 33 322 15 q 260 74 276 51 q 233 118 244 96 l 233 -247 q 238 -268 233 -258 q 249 -281 242 -275 q 269 -287 256 -287 l 269 -301 l 69 -301 l 69 -287 q 91 -281 83 -287 q 101 -268 99 -275 q 106 -247 106 -258 l 106 618 q 101 638 106 629 q 91 651 99 644 q 69 657 83 657 l 69 672 l 207 672 q 226 664 215 672 q 233 644 235 653 l 233 536 q 261 592 244 565 q 303 640 278 619 q 365 674 329 661 q 450 686 401 686 m 407 15 q 486 41 451 15 q 545 110 521 67 q 582 214 569 154 q 594 340 594 274 q 584 465 594 407 q 551 567 574 524 q 494 634 528 610 q 411 658 460 658 q 281 590 328 658 q 235 390 235 521 l 235 200 q 245 152 235 183 q 276 91 256 121 q 330 38 297 61 q 407 15 363 15 z "},"q":{"ha":772,"x_min":42,"x_max":703,"o":"m 703 657 q 683 651 690 657 q 672 638 675 644 q 668 618 668 629 l 668 -247 q 672 -268 668 -258 q 683 -281 675 -275 q 703 -287 690 -287 l 703 -301 l 503 -301 l 503 -287 q 524 -281 517 -287 q 535 -268 532 -275 q 539 -247 539 -258 l 539 144 q 512 87 529 114 q 469 39 494 60 q 407 6 443 18 q 322 -7 371 -7 q 208 20 260 -7 q 120 94 157 47 q 63 205 83 142 q 42 340 42 268 q 63 476 42 413 q 124 585 85 539 q 222 659 164 632 q 350 686 279 686 q 421 675 390 686 q 474 646 451 664 q 513 606 497 628 q 539 561 529 583 l 539 644 q 547 664 539 656 q 567 672 556 672 l 703 672 l 703 657 m 539 481 q 528 528 539 497 q 497 589 518 558 q 444 642 476 619 q 365 664 411 664 q 286 638 321 664 q 228 569 251 613 q 192 466 204 525 q 179 340 179 407 q 190 215 179 274 q 223 114 200 157 q 281 47 246 71 q 363 22 315 22 q 492 91 446 22 q 539 289 539 160 l 539 481 z "},"r":{"ha":588,"x_min":69,"x_max":574,"o":"m 235 549 q 310 653 256 619 q 436 688 365 688 q 490 683 465 688 q 533 672 514 679 q 574 657 556 665 l 507 539 q 461 608 496 582 q 382 631 426 633 q 303 603 332 631 q 258 544 274 576 q 235 457 240 506 l 235 63 q 239 43 235 51 q 249 28 242 35 q 269 22 257 22 l 269 8 l 69 8 l 69 22 q 91 28 83 22 q 101 43 99 35 q 106 63 106 51 l 106 618 q 101 638 106 629 q 91 651 99 644 q 69 657 83 657 l 69 672 l 207 672 q 226 664 218 672 q 235 644 235 656 l 235 549 z "},"s":{"ha":644,"x_min":49,"x_max":596,"o":"m 392 383 q 485 346 446 365 q 549 302 524 326 q 585 247 574 278 q 596 176 596 217 q 573 93 596 128 q 513 36 550 58 q 427 3 475 14 q 331 -7 379 -7 q 176 22 250 -10 q 49 114 103 54 l 122 192 q 144 120 126 153 q 190 64 163 88 q 254 27 218 40 q 329 15 290 14 q 451 41 403 15 q 500 128 500 67 q 482 182 500 158 q 435 224 464 206 q 367 258 406 243 q 286 286 328 272 q 190 322 231 304 q 122 363 149 340 q 81 417 94 386 q 67 492 67 449 q 88 578 67 542 q 144 640 108 615 q 226 675 179 664 q 322 686 272 686 q 466 660 397 689 q 585 576 535 632 l 518 506 q 512 542 518 517 q 485 595 506 568 q 426 643 465 622 q 321 664 388 664 q 267 658 296 664 q 215 640 239 653 q 174 606 190 628 q 158 553 158 585 q 183 487 158 514 q 242 440 207 460 q 318 408 278 421 q 392 383 358 394 z "},"t":{"ha":460,"x_min":35,"x_max":438,"o":"m 438 19 q 338 -7 392 -10 q 219 21 260 -7 q 158 82 178 49 q 133 169 136 119 l 133 650 l 35 650 l 35 672 l 133 672 l 133 815 l 263 878 l 263 672 l 433 672 l 433 650 l 263 650 l 263 140 q 265 108 263 129 q 278 67 268 88 q 308 32 289 47 q 361 17 328 17 q 394 21 378 17 q 425 35 411 25 l 438 19 z "},"u":{"ha":783,"x_min":63,"x_max":714,"o":"m 678 63 q 682 43 678 51 q 693 28 686 35 q 714 22 700 22 l 714 8 l 576 8 q 557 17 565 8 q 549 36 549 25 l 549 111 q 465 22 519 54 q 344 -7 410 -10 q 302 -3 324 -6 q 260 4 281 -1 q 195 31 225 13 q 144 77 165 50 q 110 138 122 104 q 99 207 99 171 l 99 618 q 94 638 99 629 q 84 651 92 644 q 63 657 76 657 l 63 672 l 200 672 q 219 664 208 672 q 226 644 228 653 l 226 143 q 235 98 226 121 q 263 57 244 75 q 306 28 281 39 q 364 17 331 17 q 441 35 407 17 q 499 79 475 53 q 536 134 524 106 q 549 185 549 163 l 549 618 q 544 638 549 629 q 535 651 542 644 q 514 657 528 657 l 514 672 l 650 672 q 669 664 661 672 q 678 644 678 656 l 678 63 z "},"v":{"ha":740,"x_min":7,"x_max":733,"o":"m 733 672 l 733 657 q 672 641 700 658 q 632 593 644 624 l 358 -7 l 347 -7 l 58 618 q 35 649 47 642 q 7 657 24 657 l 7 672 l 229 672 l 229 657 q 203 648 210 657 q 199 626 196 639 l 413 165 l 607 590 q 606 636 618 615 q 556 657 594 657 l 556 672 l 733 672 z "},"w":{"ha":1000,"x_min":7,"x_max":993,"o":"m 993 672 l 993 657 q 935 641 961 660 q 899 590 908 622 l 676 -7 l 665 -7 l 504 413 l 326 -7 l 315 -7 l 57 618 q 35 649 46 642 q 7 657 24 657 l 7 672 l 229 672 l 229 657 q 199 647 207 657 q 197 621 192 636 l 379 174 l 493 442 l 426 617 q 378 657 410 657 l 378 672 l 608 672 l 608 657 q 571 647 582 657 q 568 617 560 638 l 725 186 l 874 590 q 869 636 883 615 q 815 657 854 657 l 815 672 l 993 672 z "},"x":{"ha":717,"x_min":14,"x_max":701,"o":"m 638 53 q 666 30 649 38 q 701 22 683 22 l 701 8 l 450 8 l 450 22 q 483 32 474 22 q 474 67 493 42 l 315 297 l 158 89 q 146 42 139 61 q 190 22 153 22 l 190 8 l 14 8 l 14 22 q 74 36 46 22 q 129 88 101 50 l 301 317 l 94 613 q 64 644 79 632 q 21 657 49 657 l 21 672 l 274 672 l 274 657 q 240 649 250 657 q 246 617 231 640 l 399 396 l 544 590 q 558 638 565 618 q 513 657 551 657 l 513 672 l 690 672 l 690 657 q 629 643 657 657 q 574 590 601 629 l 413 376 l 638 53 z "},"y":{"ha":740,"x_min":7,"x_max":733,"o":"m 733 672 l 733 657 q 672 641 700 658 q 632 593 644 624 q 485 271 553 419 q 427 144 456 208 q 373 24 399 81 q 328 -75 347 -32 q 299 -140 308 -118 q 218 -269 261 -222 q 104 -317 175 -315 l 64 -214 q 105 -222 86 -219 q 140 -225 124 -225 q 226 -197 192 -225 q 290 -103 261 -168 q 314 -52 301 -79 q 340 7 326 -25 l 58 618 q 35 649 47 642 q 7 657 24 657 l 7 672 l 229 672 l 229 657 q 203 648 210 657 q 199 626 196 639 l 413 165 l 607 590 q 606 636 618 615 q 556 657 594 657 l 556 672 l 733 672 z "},"z":{"ha":650,"x_min":35,"x_max":615,"o":"m 476 31 q 558 63 532 31 q 592 140 585 96 l 607 140 l 593 8 l 35 8 l 35 31 l 465 650 l 176 650 q 95 617 121 650 q 61 539 69 583 l 47 539 l 61 672 l 615 672 l 615 650 l 188 31 l 476 31 z "},"{":{"ha":438,"x_min":63,"x_max":389,"o":"m 329 -121 q 378 -104 356 -118 l 389 -122 q 290 -146 342 -147 q 222 -130 251 -146 q 174 -85 192 -114 q 149 -14 156 -56 q 153 79 143 28 q 178 212 168 158 q 194 306 188 265 q 187 353 200 333 q 151 388 174 374 q 105 408 129 401 q 63 414 81 414 l 63 436 q 105 443 81 436 q 151 463 129 450 q 187 497 174 476 q 194 546 200 518 q 178 640 188 586 q 153 772 168 693 q 149 865 143 824 q 174 935 156 906 q 222 980 192 964 q 290 996 251 996 q 389 972 346 999 l 378 954 q 329 971 356 968 q 281 941 293 971 q 272 867 269 911 q 283 770 274 822 q 300 674 293 718 q 303 537 315 586 q 243 457 292 488 q 125 425 185 429 q 243 394 189 421 q 303 315 292 364 q 300 178 315 265 q 283 81 293 133 q 271 -16 272 29 q 281 -91 269 -61 q 329 -121 293 -121 z "},"|":{"ha":217,"x_min":97,"x_max":119,"o":"m 97 -110 l 97 982 l 119 982 l 119 -110 l 97 -110 z "},"}":{"ha":438,"x_min":49,"x_max":375,"o":"m 375 414 q 333 408 357 414 q 286 388 308 401 q 251 353 264 374 q 243 306 238 333 q 260 212 250 265 q 285 79 269 158 q 264 -84 303 -24 q 147 -144 225 -144 q 49 -122 97 -149 l 60 -104 q 108 -121 82 -118 q 156 -91 144 -121 q 166 -16 168 -61 q 154 81 164 29 q 138 178 144 133 q 134 315 122 265 q 194 394 146 364 q 313 425 249 421 q 194 457 253 429 q 134 537 146 488 q 138 674 122 586 q 154 770 144 718 q 166 867 164 822 q 156 941 168 911 q 108 971 144 971 q 60 954 82 968 l 49 972 q 147 996 92 999 q 216 980 186 996 q 264 935 246 964 q 288 865 282 906 q 285 772 294 824 q 260 640 269 693 q 243 546 250 586 q 251 497 238 518 q 286 463 264 476 q 333 443 308 450 q 375 436 357 436 l 375 414 z "}," ":{"ha":438,"x_min":0,"x_max":0,"o":""}}}
